<?xml version="1.0" encoding="UTF-8" standalone="no"?><svg xmlns="http://www.w3.org/2000/svg" width="800" height="600"><rect width="100%" height="100%" fill="white"/><style>text { font-family: Arial, sans-serif; }.title { font-size: 24px; font-weight: bold; text-anchor: middle; }.heading { font-size: 18px; font-weight: bold; }.label { font-size: 14px; font-weight: bold; }.value { font-size: 14px; }</style><text x="400" y="50" class="title">CERTIFICATE OF STUDENT MISCONDUCT RECORD</text><line x1="100" y1="60" x2="700" y2="60" stroke="black" stroke-width="2"/><text x="100" y="100" class="label">Certificate Number:</text><text x="250" y="100" class="value">CERT-ITLRDJ2I</text><text x="100" y="130" class="label">Issued Date:</text><text x="250" y="130" class="value">2025-12-06 00:00:00</text><text x="100" y="160" class="label">School:</text><text x="250" y="160" class="value">Echague State University</text><text x="100" y="190" class="label">Location:</text><text x="250" y="190" class="value">Echague, Isabela</text><text x="100" y="240" class="heading">STUDENT INFORMATION</text><line x1="100" y1="250" x2="700" y2="250" stroke="black" stroke-width="1"/><text x="100" y="280" class="label">Name:</text><text x="250" y="280" class="value">Christian John Aquino</text><text x="100" y="310" class="label">Student ID:</text><text x="250" y="310" class="value">1</text><text x="100" y="340" class="label">Program/Grade:</text><text x="250" y="340" class="value">BS Computer Science</text><text x="100" y="390" class="heading">MISCONDUCT DETAILS</text><line x1="100" y1="400" x2="700" y2="400" stroke="black" stroke-width="1"/><text x="100" y="430" class="label">Offense Type:</text><text x="250" y="430" class="value">edfdc</text><text x="100" y="460" class="label">Date of Incident:</text><text x="250" y="460" class="value">2025-12-06 00:00:00</text><text x="100" y="490" class="label">Disciplinary Action:</text><text x="250" y="490" class="value">dfsdQD</text><text x="100" y="520" class="label">Status:</text><text x="250" y="520" class="value">Pending</text><text x="100" y="570" class="label">Issued By: Dr. Maria S. Reyes (Dean of Student Affairs)</text></svg>